<mxfile host="app.diagrams.net" modified="2024-04-24T15:15:05.862Z" agent="Mozilla/5.0 (Windows NT 10.0; Win64; x64) AppleWebKit/537.36 (KHTML, like Gecko) Chrome/124.0.0.0 Safari/537.36" version="24.2.5" etag="pxVL2S-Ubywi7IeLo3c4" type="github">
  <diagram name="第 1 页" id="z7yhUQtCh_U5H4Fdhnmx">
    <mxGraphModel>
      <root>
        <mxCell id="0" />
        <mxCell id="1" parent="0" />
      </root>
    </mxGraphModel>
  </diagram>
</mxfile>
